<svg width="22" height="22" viewBox="0 0 22 22" fill="none" xmlns="http://www.w3.org/2000/svg">
<path fill-rule="evenodd" clip-rule="evenodd" d="M14.7783 1.86138C13.9821 1.86138 13.2185 2.15577 12.6555 2.67977L3.46545 11.2328C2.52714 12.1061 2 13.2905 2 14.5255C2 15.7605 2.52714 16.9449 3.46545 17.8182C4.40375 18.6915 5.67637 19.1821 7.00334 19.1821C8.33031 19.1821 9.60293 18.6915 10.5412 17.8182L19.7312 9.26514C20.1218 8.90169 20.7549 8.90169 21.1455 9.26514C21.536 9.6286 21.536 10.2179 21.1455 10.5813L11.9555 19.1344C10.6421 20.3567 8.86074 21.0435 7.00334 21.0435C5.14594 21.0435 3.36461 20.3567 2.05123 19.1344C0.73785 17.912 0 16.2542 0 14.5255C0 12.7968 0.73785 11.139 2.05123 9.91663L11.2412 1.36357C12.1793 0.490492 13.4517 0 14.7783 0C16.105 0 17.3774 0.490491 18.3155 1.36357C19.2536 2.23665 19.7806 3.4208 19.7806 4.65553C19.7806 5.89025 19.2536 7.0744 18.3155 7.94748L9.11545 16.5005C8.55263 17.0243 7.78929 17.3186 6.99334 17.3186C6.1974 17.3186 5.43405 17.0243 4.87123 16.5005C4.30842 15.9767 3.99223 15.2663 3.99223 14.5255C3.99223 13.7847 4.30842 13.0743 4.87123 12.5505L13.3617 4.65783C13.7524 4.29459 14.3856 4.29494 14.7759 4.65861C15.1662 5.02228 15.1658 5.61156 14.775 5.9748L6.28545 13.8667C6.09796 14.0414 5.99223 14.2786 5.99223 14.5255C5.99223 14.7726 6.0977 15.0096 6.28545 15.1843C6.47319 15.3591 6.72783 15.4572 6.99334 15.4572C7.25885 15.4572 7.51349 15.3591 7.70124 15.1843L16.9012 6.63129C17.464 6.10732 17.7806 5.39641 17.7806 4.65553C17.7806 3.91447 17.4643 3.20377 16.9012 2.67977C16.3382 2.15577 15.5746 1.86138 14.7783 1.86138Z" fill="#939393"/>
</svg>
