<svg width="15" height="18" viewBox="0 0 15 18" fill="none" xmlns="http://www.w3.org/2000/svg">
<path fill-rule="evenodd" clip-rule="evenodd" d="M0 1C0 0.447715 0.447715 0 1 0H9C10.3261 0 11.5979 0.526784 12.5355 1.46447C13.4732 2.40215 14 3.67392 14 5C14 6.32608 13.4732 7.59785 12.5355 8.53553C11.5979 9.47322 10.3261 10 9 10H1C0.447715 10 0 9.55229 0 9V1ZM2 2V8H9C9.79565 8 10.5587 7.68393 11.1213 7.12132C11.6839 6.55871 12 5.79565 12 5C12 4.20435 11.6839 3.44129 11.1213 2.87868C10.5587 2.31607 9.79565 2 9 2H2Z" fill="#939393"/>
<path fill-rule="evenodd" clip-rule="evenodd" d="M0 9C0 8.44771 0.447715 8 1 8H10C11.3261 8 12.5979 8.52678 13.5355 9.46447C14.4732 10.4021 15 11.6739 15 13C15 14.3261 14.4732 15.5979 13.5355 16.5355C12.5979 17.4732 11.3261 18 10 18H1C0.447715 18 0 17.5523 0 17V9ZM2 10V16H10C10.7956 16 11.5587 15.6839 12.1213 15.1213C12.6839 14.5587 13 13.7956 13 13C13 12.2044 12.6839 11.4413 12.1213 10.8787C11.5587 10.3161 10.7956 10 10 10H2Z" fill="#939393"/>
</svg>
