<svg width="29" height="29" viewBox="0 0 29 29" fill="none" xmlns="http://www.w3.org/2000/svg">
<path d="M24.6561 4.83325H4.35607C3.8244 4.83325 3.3894 5.26825 3.3894 5.79992V18.1491C3.3894 18.6807 3.8244 19.0916 4.35607 19.0916H15.7144V23.1999C15.7144 23.6108 16.0286 23.9733 16.3911 24.1183C16.5119 24.1666 16.6327 24.1666 16.7536 24.1666C17.0436 24.1666 17.3094 24.0457 17.5027 23.8282L21.5144 19.0916H24.6561C25.1877 19.0916 25.6227 18.6807 25.6227 18.1491V5.79992C25.6227 5.26825 25.1877 4.83325 24.6561 4.83325ZM23.6894 17.1583H21.0794C20.7894 17.1583 20.4752 17.3033 20.2819 17.4966L17.6477 20.5416V18.1249C17.6477 17.5933 17.3094 17.1341 16.7777 17.1341H5.32274V6.74242H23.6894V17.1583ZM7.8844 10.1499C7.8844 9.61825 8.3194 9.18325 8.85107 9.18325H15.8594C16.3911 9.18325 16.8261 9.61825 16.8261 10.1499C16.8261 10.6816 16.3911 11.1166 15.8594 11.1166H8.85107C8.3194 11.1166 7.8844 10.6816 7.8844 10.1499ZM18.4936 10.8991C18.3244 10.7299 18.2036 10.4641 18.2036 10.2224C18.2036 9.9566 18.3002 9.71492 18.4936 9.54575C18.6869 9.35242 18.9286 9.25576 19.1702 9.25576C19.4361 9.25576 19.6777 9.35242 19.8469 9.54575C20.0161 9.71492 20.1369 9.98076 20.1369 10.2224C20.1369 10.4883 20.0402 10.7299 19.8469 10.8991C19.6536 11.0924 19.4119 11.1891 19.1702 11.1891C18.9286 11.1649 18.6869 11.0682 18.4936 10.8991Z" fill="#3667E7"/>
</svg>
