<svg width="300" height="248" viewBox="0 0 300 248" fill="none" xmlns="http://www.w3.org/2000/svg">
<path d="M99.4619 94.6436H120.724C123.235 94.6436 125.231 92.6138 125.231 90.1367V56.6272C125.231 55.079 124.612 53.5653 123.511 52.4643C122.41 51.3634 120.93 50.7441 119.347 50.7441H64.8171C47.5119 50.7441 31.2388 57.4873 18.991 69.7351C6.74318 81.983 0 98.256 0 115.561V116.559C0 133.864 6.74318 150.137 18.991 162.385C31.2388 174.633 47.5119 181.376 64.8171 181.376H119.382C120.93 181.376 122.443 180.757 123.545 179.656C124.646 178.555 125.265 177.075 125.265 175.493V146.525C125.265 144.013 123.235 142.018 120.758 142.018H99.4963C96.9845 142.018 94.989 144.047 94.989 146.525V151.032H64.8512C45.7913 151.032 30.3784 135.584 30.3784 116.559V115.561C30.3784 96.5018 45.8258 81.0884 64.8512 81.0884H94.989V90.1711C94.955 92.6482 96.9845 94.6436 99.4619 94.6436Z" fill="#C4C4C4"/>
<path d="M207.144 11.4893C205.665 10.698 204.014 10.2852 202.362 10.2852C198.509 10.2852 195 12.3838 193.211 15.7898L175.286 49.8497C172.637 54.8727 174.563 61.1342 179.621 63.7833C181.1 64.5746 182.752 64.9875 184.403 64.9875C188.256 64.9875 191.765 62.8888 193.555 59.4828L211.48 25.4229C212.752 22.9802 213.028 20.1935 212.202 17.5444C211.376 14.9297 209.587 12.7622 207.144 11.4893Z" fill="#C4C4C4"/>
<path d="M148.59 7.25924C147.248 2.92434 143.292 0 138.75 0C137.718 0 136.686 0.17202 135.688 0.481656C130.253 2.16745 127.191 7.98172 128.876 13.4176L140.299 50.161C141.64 54.4959 145.597 57.4202 150.138 57.4202C151.17 57.4202 152.202 57.2482 153.2 56.9386C155.849 56.1129 157.982 54.3239 159.29 51.8812C160.562 49.4385 160.838 46.6518 160.012 44.0027L148.59 7.25924Z" fill="#C4C4C4"/>
<path d="M201.127 82.1549C202.469 86.4898 206.425 89.4141 210.967 89.4141C211.999 89.4141 213.031 89.2421 214.029 88.9325L250.772 77.5103C256.208 75.8245 259.27 70.0103 257.55 64.6089C256.208 60.2739 252.252 57.3496 247.71 57.3496C246.678 57.3496 245.646 57.5216 244.648 57.8313L207.905 69.219C202.469 70.9048 199.441 76.719 201.127 82.1549Z" fill="#C4C4C4"/>
<path d="M195.171 173.018L180.136 157.983C178.382 156.228 175.492 156.228 173.737 157.983L150.067 181.687C148.966 182.788 148.347 184.267 148.347 185.85C148.347 187.398 148.966 188.912 150.067 190.014L188.634 228.58C200.882 240.828 217.155 247.571 234.46 247.571C251.765 247.571 268.038 240.828 280.286 228.58L281.009 227.858C293.256 215.609 300 199.337 300 182.032C300 164.727 293.256 148.453 281.009 136.206L242.407 97.6733C241.306 96.5724 239.827 95.9531 238.245 95.9531C236.696 95.9531 235.183 96.5724 234.081 97.6733L213.611 118.144C211.856 119.899 211.856 122.788 213.611 124.543L228.645 139.577C230.4 141.332 233.29 141.332 235.045 139.577L238.245 136.378L259.575 157.708C273.027 171.16 273.027 193.007 259.575 206.493L258.852 207.216C245.4 220.668 223.554 220.668 210.067 207.216L188.737 185.885L195.17 179.452C196.96 177.662 196.96 174.806 195.171 173.018Z" fill="#C4C4C4"/>
</svg>
