<svg width="21" height="18" viewBox="0 0 21 18" fill="none" xmlns="http://www.w3.org/2000/svg">
<path d="M20.4402 3.46598C19.4405 1.36329 17.3435 0 15.0758 0C12.8081 0 11.345 0.947368 10.4916 1.96406C9.63817 0.947368 8.17515 0 5.90745 0C3.63975 0 1.54275 1.36329 0.543009 3.46598C-0.481112 5.6611 -0.0422045 8.08728 1.73781 9.98202C6.00498 14.534 9.78448 17.7458 9.83325 17.7689C10.0283 17.9307 10.2478 18 10.4916 18C10.7354 18 10.9549 17.9307 11.15 17.7689C11.1987 17.7458 14.9538 14.5109 19.2454 9.98202C21.0498 8.08728 21.4887 5.6611 20.4402 3.46598ZM17.8068 8.75739C14.6369 12.1078 11.7596 14.742 10.516 15.828C9.27242 14.7189 6.39513 12.1078 3.22523 8.73429C1.95727 7.371 1.64028 5.73042 2.34741 4.18228C3.00577 2.77278 4.44442 1.80232 5.93183 1.80232C8.83351 1.80232 9.49187 3.8588 9.56502 4.11298C9.66256 4.52889 10.0527 4.80617 10.4916 4.80617C10.9305 4.80617 11.3207 4.50579 11.4426 4.11298C11.5157 3.88191 12.1741 1.80232 15.0758 1.80232C16.5388 1.80232 17.9774 2.74967 18.6602 4.18228C19.3917 5.75352 19.0747 7.3941 17.8068 8.75739Z" fill="#3667E7"/>
</svg>
