<svg width="21" height="18" viewBox="0 0 21 18" fill="none" xmlns="http://www.w3.org/2000/svg">
<path d="M20.4402 3.46598C19.4405 1.36329 17.3435 0 15.0758 0C12.8081 0 11.345 0.947368 10.4916 1.96406C9.63817 0.947368 8.17515 0 5.90745 0C3.63975 0 1.54275 1.36329 0.543009 3.46598C-0.481112 5.6611 -0.0422045 8.08728 1.73781 9.98202C6.00498 14.534 9.78448 17.7458 9.83325 17.7689C10.0283 17.9307 10.2478 18 10.4916 18C10.7354 18 10.9549 17.9307 11.15 17.7689C11.1987 17.7458 14.9538 14.5109 19.2454 9.98202C21.0498 8.08728 21.4887 5.6611 20.4402 3.46598Z" fill="#F14336"/>
</svg>
