<svg width="25" height="12" viewBox="0 0 25 12" fill="none" xmlns="http://www.w3.org/2000/svg">
<path fill-rule="evenodd" clip-rule="evenodd" d="M6.9436 1.86137C5.88274 1.86137 4.86532 2.25358 4.11518 2.95173C3.36503 3.64988 2.9436 4.59678 2.9436 5.58411C2.9436 6.57144 3.36503 7.51833 4.11518 8.21648C4.48661 8.56217 4.92757 8.83638 5.41287 9.02347C5.89817 9.21055 6.41832 9.30684 6.9436 9.30684H9.9436C10.4959 9.30684 10.9436 9.72353 10.9436 10.2375C10.9436 10.7515 10.4959 11.1682 9.9436 11.1682H6.9436C6.15567 11.1682 5.37546 11.0238 4.6475 10.7431C3.91955 10.4625 3.25811 10.0512 2.70096 9.53267C1.57574 8.48544 0.943604 7.0651 0.943604 5.58411C0.943604 4.10311 1.57574 2.68277 2.70096 1.63555C3.82618 0.588324 5.3523 0 6.9436 0H9.9436C10.4959 0 10.9436 0.416682 10.9436 0.930684C10.9436 1.44469 10.4959 1.86137 9.9436 1.86137H6.9436ZM14.9436 0.930684C14.9436 0.416682 15.3913 0 15.9436 0H18.9436C19.7315 0 20.5118 0.144437 21.2397 0.425065C21.9677 0.705693 22.6291 1.11701 23.1862 1.63555C23.7434 2.15408 24.1854 2.76967 24.4869 3.44716C24.7884 4.12466 24.9436 4.85079 24.9436 5.58411C24.9436 6.31742 24.7884 7.04356 24.4869 7.72105C24.1854 8.39855 23.7434 9.01413 23.1862 9.53267C22.6291 10.0512 21.9677 10.4625 21.2397 10.7431C20.5118 11.0238 19.7315 11.1682 18.9436 11.1682H15.9436C15.3913 11.1682 14.9436 10.7515 14.9436 10.2375C14.9436 9.72353 15.3913 9.30684 15.9436 9.30684H18.9436C19.4689 9.30684 19.989 9.21055 20.4743 9.02347C20.9596 8.83638 21.4006 8.56217 21.772 8.21648C22.1435 7.87079 22.4381 7.4604 22.6391 7.00874C22.8401 6.55707 22.9436 6.07298 22.9436 5.58411C22.9436 5.09523 22.8401 4.61114 22.6391 4.15948C22.4381 3.70781 22.1435 3.29742 21.772 2.95173C21.4006 2.60605 20.9596 2.33183 20.4743 2.14475C19.989 1.95766 19.4689 1.86137 18.9436 1.86137H15.9436C15.3913 1.86137 14.9436 1.44469 14.9436 0.930684Z" fill="#939393"/>
<path fill-rule="evenodd" clip-rule="evenodd" d="M7.9436 5.58411C7.9436 5.0701 8.39132 4.65342 8.9436 4.65342H16.9436C17.4959 4.65342 17.9436 5.0701 17.9436 5.58411C17.9436 6.09811 17.4959 6.51479 16.9436 6.51479H8.9436C8.39132 6.51479 7.9436 6.09811 7.9436 5.58411Z" fill="#939393"/>
</svg>
