<svg width="22" height="22" viewBox="0 0 22 22" fill="none" xmlns="http://www.w3.org/2000/svg">
<path fill-rule="evenodd" clip-rule="evenodd" d="M11.7188 1.68427C12.8505 0.591323 14.3661 -0.0134437 15.9393 0.000226815C17.5124 0.0138973 19.0173 0.644911 20.1298 1.75736C21.2422 2.86981 21.8732 4.37468 21.8869 5.94786C21.9006 7.52104 21.2958 9.03666 20.2028 10.1683L20.1907 10.1807L17.1908 13.1805C16.5825 13.789 15.8505 14.2596 15.0444 14.5603C14.2383 14.861 13.3769 14.9848 12.5188 14.9233C11.6606 14.8619 10.8257 14.6166 10.0707 14.2041C9.31562 13.7916 8.65814 13.2215 8.14279 12.5325C7.81199 12.0903 7.90233 11.4636 8.34458 11.1328C8.78683 10.802 9.41352 10.8923 9.74432 11.3346C10.0879 11.7939 10.5262 12.1739 11.0296 12.4489C11.5329 12.7239 12.0895 12.8875 12.6616 12.9284C13.2338 12.9694 13.808 12.8869 14.3454 12.6864C14.8828 12.4859 15.3708 12.1722 15.7763 11.7666L18.77 8.77294C19.495 8.01917 19.8961 7.01129 19.887 5.96524C19.8779 4.91646 19.4572 3.91321 18.7155 3.17157C17.9739 2.42994 16.9707 2.00926 15.9219 2.00015C14.8754 1.99106 13.8671 2.39246 13.1132 3.1181L11.3986 4.82272C11.0069 5.21211 10.3738 5.21026 9.98439 4.8186C9.59501 4.42694 9.59686 3.79378 9.98852 3.40439L11.7085 1.69439L11.7188 1.68427Z" fill="#939393"/>
<path fill-rule="evenodd" clip-rule="evenodd" d="M6.84271 7.30684C7.64882 7.00614 8.51017 6.88232 9.36834 6.94378C10.2265 7.00524 11.0614 7.25054 11.8165 7.66305C12.5715 8.07556 13.229 8.64563 13.7443 9.33458C14.0751 9.77683 13.9848 10.4035 13.5425 10.7343C13.1003 11.0651 12.4736 10.9748 12.1428 10.5325C11.7992 10.0732 11.3609 9.69319 10.8576 9.41819C10.3542 9.14318 9.79759 8.97964 9.22547 8.93867C8.65336 8.8977 8.07912 8.98024 7.54172 9.18071C7.00431 9.38118 6.5163 9.69488 6.11079 10.1005L3.11715 13.0942C2.39211 13.848 1.99106 14.8558 2.00015 15.9019C2.00926 16.9507 2.42994 17.9539 3.17157 18.6955C3.91321 19.4372 4.91646 19.8579 5.96524 19.867C7.01129 19.8761 8.01915 19.475 8.77292 18.75L10.4765 17.0465C10.867 16.6559 11.5001 16.6559 11.8907 17.0465C12.2812 17.437 12.2812 18.0701 11.8907 18.4607L10.1807 20.1707L10.1683 20.1828C9.03666 21.2758 7.52104 21.8806 5.94786 21.8669C4.37468 21.8532 2.86981 21.2222 1.75736 20.1098C0.644911 18.9973 0.0138973 17.4924 0.000226815 15.9193C-0.0134437 14.3461 0.591322 12.8305 1.68427 11.6988L1.69645 11.6865L4.69632 8.68658C4.69628 8.68662 4.69637 8.68654 4.69632 8.68658C5.30456 8.07816 6.03666 7.60752 6.84271 7.30684Z" fill="#939393"/>
</svg>
