<svg width="24" height="22" viewBox="0 0 24 22" fill="none" xmlns="http://www.w3.org/2000/svg">
<g clip-path="url(#clip0)">
<path d="M3.77643 15.3992C2.91823 15.3992 2.18902 15.6796 1.58818 16.2401C0.98774 16.8005 0.687378 17.4813 0.687378 18.2822C0.687378 19.0834 0.987458 19.764 1.58818 20.3244C2.18902 20.885 2.91845 21.1654 3.77643 21.1654C4.63452 21.1654 5.36378 20.885 5.96451 20.3244C6.56501 19.764 6.86537 19.0834 6.86537 18.2822C6.86537 17.4812 6.56501 16.8005 5.96451 16.2401C5.36395 15.6796 4.63469 15.3992 3.77643 15.3992Z" fill="black"/>
<path d="M10.8878 11.6447C9.67569 10.5035 8.2867 9.59503 6.72065 8.91938C5.1546 8.24351 3.51337 7.84057 1.79731 7.71045H1.71701C1.43811 7.71045 1.20746 7.7956 1.02527 7.96575C0.799915 8.14574 0.687378 8.38116 0.687378 8.67144V10.6987C0.687378 10.9489 0.775796 11.1641 0.952688 11.3445C1.12964 11.5248 1.35218 11.6249 1.62036 11.6447C4.07656 11.865 6.17622 12.7888 7.91911 14.4154C9.66211 16.042 10.6517 18.0018 10.8876 20.2941C10.9092 20.5447 11.0163 20.7523 11.2095 20.9172C11.4026 21.0828 11.6331 21.1655 11.9012 21.1655H14.0734C14.3843 21.1655 14.6363 21.0606 14.8294 20.8501C15.0334 20.6496 15.1244 20.4093 15.1034 20.1291C14.9638 18.5277 14.532 16.9958 13.808 15.5342C13.0841 14.0724 12.1106 12.7762 10.8878 11.6447Z" fill="black"/>
<path d="M21.4101 12.6288C20.2625 10.2312 18.6857 8.10142 16.6801 6.2393C14.6849 4.36718 12.4031 2.89564 9.834 1.82441C7.2652 0.753392 4.57564 0.152584 1.76531 0.0224609H1.71713C1.43824 0.0224609 1.20229 0.112558 1.00916 0.292806C0.79474 0.472843 0.6875 0.703268 0.6875 0.983607V3.13085C0.6875 3.38121 0.781441 3.5988 0.96904 3.78405C1.1567 3.96934 1.38453 4.06681 1.65272 4.07701C3.95891 4.20734 6.14964 4.71805 8.22518 5.60898C10.3007 6.49997 12.1026 7.65877 13.6311 9.08508C15.1593 10.5116 16.4008 12.1936 17.3554 14.1307C18.3101 16.0681 18.852 18.1125 18.9806 20.2649C18.9916 20.5154 19.0959 20.7282 19.2942 20.9033C19.4928 21.0784 19.7316 21.1662 20.0104 21.1662H22.3109C22.6113 21.1662 22.8576 21.0662 23.0511 20.8657C23.2657 20.6655 23.362 20.4305 23.3409 20.1601C23.2017 17.5369 22.5577 15.0267 21.4101 12.6288Z" fill="black"/>
</g>
<defs>
<clipPath id="clip0">
<rect width="22.6562" height="21.1458" fill="white" transform="translate(0.6875 0.020752)"/>
</clipPath>
</defs>
</svg>
