<svg width="29" height="28" viewBox="0 0 29 28" fill="none" xmlns="http://www.w3.org/2000/svg">
<g clip-path="url(#clip0)">
<path d="M14.4166 0C6.93157 0 0.822876 6.10922 0.822876 13.5938C0.822876 21.0788 6.9321 27.1875 14.4166 27.1875C21.9017 27.1875 28.0104 21.0783 28.0104 13.5938C28.0104 6.10869 21.9012 0 14.4166 0ZM23.637 5.92125C25.3341 7.95712 26.3701 10.5617 26.4147 13.4026C24.2875 12.905 21.925 12.8716 19.5191 13.3102C18.893 13.4244 18.267 13.5693 17.6446 13.7435C17.4375 13.1801 17.2177 12.6215 16.984 12.0682C16.7456 11.5037 16.4939 10.9488 16.2305 10.4019C19.0974 9.30694 22.2038 7.67675 23.637 5.92125ZM14.4166 1.59302C17.54 1.59302 20.3878 2.79256 22.5251 4.75463C21.6914 5.89151 19.3157 7.54666 15.5041 8.974C14.1734 6.49633 12.5778 4.21937 10.7341 2.17181C11.8949 1.79639 13.1327 1.59302 14.4166 1.59302ZM9.15701 2.80902C11.0373 4.82313 12.6547 7.07247 13.987 9.50235C10.0215 10.7858 6.00656 11.3094 2.70529 10.9711C3.50923 7.37886 5.92797 4.38983 9.15701 2.80902ZM2.41589 13.5938C2.41589 13.2412 2.43235 12.8923 2.46209 12.5477C3.19063 12.6247 3.9505 12.6634 4.73586 12.6634C7.83322 12.6634 11.3129 12.0676 14.7299 10.9361C15.2514 12.0034 15.7202 13.1015 16.1339 14.2267C14.8016 14.7057 13.5049 15.3147 12.2873 16.0396C9.30198 17.8168 7.11795 20.1033 6.21205 22.3431C3.87722 20.1522 2.41589 17.0405 2.41589 13.5938ZM14.4166 25.5945C11.8524 25.5945 9.47349 24.7858 7.52098 23.4099C8.12633 21.3645 10.1739 19.1518 13.1024 17.4085C14.1341 16.7936 15.3406 16.2143 16.6538 15.7433C17.5846 18.6691 18.1549 21.7574 18.336 24.9366C17.1072 25.3624 15.7887 25.5945 14.4166 25.5945ZM19.8897 24.2723C19.6688 21.1755 19.0921 18.1604 18.1666 15.2643C20.7473 14.5549 23.6136 14.317 26.3319 15.0222C25.8508 19.0583 23.3593 22.4865 19.8897 24.2723Z" fill="black"/>
</g>
<defs>
<clipPath id="clip0">
<rect width="27.1875" height="27.1875" fill="white" transform="translate(0.822876)"/>
</clipPath>
</defs>
</svg>
