<svg width="23" height="25" viewBox="0 0 23 25" fill="none" xmlns="http://www.w3.org/2000/svg">
<g clip-path="url(#clip0)">
<path d="M21.1364 6.82417C20.1234 4.97283 18.7494 3.50712 17.0139 2.42671C15.2781 1.34625 13.3832 0.806152 11.3278 0.806152C9.27266 0.806152 7.37714 1.34641 5.64176 2.42671C3.90613 3.50706 2.53213 4.97283 1.51915 6.82417C0.506319 8.67545 -0.00012207 10.6971 -0.00012207 12.889C-0.00012207 15.5219 0.720044 17.8896 2.16074 19.9925C3.60128 22.0955 5.46224 23.5508 7.74347 24.3583C8.00901 24.4109 8.20559 24.3739 8.3334 24.2483C8.46126 24.1226 8.52512 23.9651 8.52512 23.7765C8.52512 23.7451 8.52258 23.462 8.51768 22.927C8.51261 22.3919 8.51024 21.9252 8.51024 21.5269L8.17097 21.5895C7.95466 21.6318 7.68179 21.6497 7.35234 21.6446C7.02305 21.6397 6.6812 21.6029 6.32727 21.5345C5.97318 21.4667 5.64383 21.3093 5.33897 21.0628C5.03427 20.8163 4.81796 20.4937 4.6901 20.0954L4.54261 19.7333C4.44429 19.4923 4.28952 19.2246 4.07806 18.9311C3.86661 18.6373 3.65278 18.4381 3.43648 18.3333L3.3332 18.2544C3.26439 18.202 3.20054 18.1388 3.14149 18.0655C3.08249 17.9921 3.03832 17.9187 3.00882 17.8452C2.97927 17.7716 3.00376 17.7113 3.08254 17.664C3.16132 17.6166 3.3037 17.5936 3.5103 17.5936L3.80519 17.6406C4.00186 17.6827 4.24514 17.8083 4.53532 18.0182C4.82535 18.2279 5.06377 18.5006 5.25063 18.8361C5.47691 19.2662 5.74953 19.594 6.06927 19.8195C6.38874 20.0451 6.71086 20.1577 7.03529 20.1577C7.35973 20.1577 7.63994 20.1314 7.87604 20.0792C8.11187 20.0268 8.33314 19.9479 8.53973 19.8431C8.62823 19.1401 8.86918 18.6 9.26238 18.2225C8.70195 18.1596 8.1981 18.065 7.75055 17.9392C7.30326 17.8132 6.84104 17.6088 6.3642 17.3253C5.88711 17.0422 5.49132 16.6907 5.17676 16.2714C4.86214 15.8518 4.60393 15.301 4.4025 14.6193C4.20097 13.9375 4.10017 13.1509 4.10017 12.2594C4.10017 10.99 4.48867 9.90982 5.26551 9.01821C4.90161 8.06388 4.93596 6.99406 5.36868 5.80884C5.65385 5.71433 6.07676 5.78525 6.63718 6.02116C7.19772 6.25718 7.60812 6.45936 7.8688 6.627C8.12949 6.79457 8.33836 6.93658 8.49572 7.05175C9.41039 6.77914 10.3543 6.64281 11.3277 6.64281C12.3011 6.64281 13.2453 6.77914 14.16 7.05175L14.7205 6.67433C15.1037 6.4225 15.5563 6.19171 16.0772 5.98193C16.5984 5.77225 16.9969 5.7145 17.2723 5.809C17.7147 6.99428 17.7541 8.06405 17.3901 9.01838C18.1669 9.90999 18.5555 10.9905 18.5555 12.2595C18.5555 13.151 18.4544 13.9401 18.2531 14.6272C18.0517 15.3145 17.7912 15.8647 17.4718 16.2793C17.1519 16.6937 16.7536 17.0425 16.2768 17.3255C15.7998 17.6087 15.3375 17.8132 14.8902 17.9392C14.4427 18.0651 13.9388 18.1598 13.3784 18.2227C13.8895 18.6945 14.1451 19.4393 14.1451 20.4567V23.7761C14.1451 23.9647 14.2066 24.1221 14.3297 24.2479C14.4526 24.3735 14.6467 24.4105 14.9122 24.3578C17.1938 23.5504 19.0547 22.0951 20.4952 19.992C21.9355 17.8891 22.656 15.5215 22.656 12.8885C22.6555 10.6969 22.1488 8.67545 21.1364 6.82417Z" fill="black"/>
</g>
<defs>
<clipPath id="clip0">
<rect width="22.6562" height="24.1667" fill="white" transform="translate(0 0.510498)"/>
</clipPath>
</defs>
</svg>
