<svg width="28" height="28" viewBox="0 0 28 28" fill="none" xmlns="http://www.w3.org/2000/svg">
<path d="M19.7691 23.8001C19.5824 23.8001 19.4191 23.7534 19.2557 23.6601L14.0057 20.2534L8.75574 23.6601C8.42907 23.8701 8.00907 23.8467 7.70574 23.6367C7.40241 23.4034 7.26241 23.0067 7.35574 22.6334L9.01241 16.8001L4.08907 12.6467C3.80907 12.4134 3.6924 12.0167 3.80907 11.6434C3.92574 11.2934 4.2524 11.0367 4.62574 10.9901L10.5291 10.5701L13.1891 4.76007C13.3524 4.4334 13.6791 4.22339 14.0291 4.22339C14.4024 4.22339 14.7291 4.4334 14.8691 4.76007L17.5291 10.5701L23.4324 10.9901C23.8057 11.0134 24.1324 11.2701 24.2491 11.6434C24.3657 11.9934 24.2491 12.3901 23.9691 12.6467L19.0457 16.8001L20.7024 22.6334C20.8191 23.0067 20.6791 23.4034 20.3524 23.6367C20.1657 23.7301 19.9791 23.8001 19.7691 23.8001Z" fill="#FBBB00"/>
</svg>
